<svg id="art" xmlns="http://www.w3.org/2000/svg" viewBox="0 0 768 260"><defs><style>.cls-1{fill:#276ef1;}.cls-2{fill:#c78982;}.cls-3{fill:#99644d;}.cls-4{fill:#fff;}.cls-5{fill:#ffafa1;}.cls-6{fill:#7c4f40;}</style></defs><title>whyDriveWithUs_tablet</title><path class="cls-1" d="M713.61,219.58l-12.54-40.65C683.46,121.88,629.6,82.82,568.5,82.82H.24V260H77.8l101.59-11.5L296.74,260h46.5l145.85-9.36L634.95,260h48.83A31.22,31.22,0,0,0,713.61,219.58Z"/><path class="cls-2" d="M207.89,116.76v46.49H167.74V117.49C174.46,123.67,207.89,116.76,207.89,116.76Z"/><path class="cls-3" d="M167.74,124v-16h40.14v34.39c-6.52,0-11.05,0-16.41-1.86A57.3,57.3,0,0,1,167.74,124Z"/><path class="cls-2" d="M148.3,71.4c0-1.06,0-2.11.13-3.15A39.2,39.2,0,0,1,149,63.9c0-.16,0-.32,0-.49,0-20.91,14.82-38.16,34-40.66a37.1,37.1,0,0,1,4.81-.32c21.41,0,38.77,18.35,38.77,41,0,.15,0,.3,0,.46a39.64,39.64,0,0,1,.73,6.8c0,.24,0,.49,0,.73,0,0,.13,1.63.05,4.42,0,1.83-.15,3.64-.34,5.46,0,.49-.1,1-.17,1.45q-.35,2.92-.94,5.79a69.89,69.89,0,0,1-2.79,9.86,72.31,72.31,0,0,1-8.29,16.2l-.16.24c-.58.84-1.18,1.68-1.8,2.49a71.74,71.74,0,0,1-7.36,8.4l-.22.2c-10.81,12-23.45,12.52-35,0l-.21-.2A73.07,73.07,0,0,1,159.73,113a72.1,72.1,0,0,1-5-9A71,71,0,0,1,150.52,92a68.49,68.49,0,0,1-2.09-12.68c-.1-1.17-.15-2.35-.18-3.53,0-.43,0-.83,0-1.21C148.21,72.57,148.3,71.4,148.3,71.4Z"/><path class="cls-2" d="M185.1,94.87l0-.1Z"/><path class="cls-2" d="M185.1,94.87l0-.1Z"/><path d="M144.62,139.09c4.43,1.77,10.57,3.2,23.13,3.2v-19c-.44-.48-.89-1-1.31-1.45s-.85-1-1.27-1.48-.76-.91-1.13-1.38l-.21-.26a8.39,8.39,0,0,1-.81-1c-4.14-7.53-5.48-10-7.27-21.21-1.69-10.57-.56-20.32,9-24.27,13.27-5.47,22.8-18,27-31.73,0,14.05,9.91,26.13,19.5,32,9.41,5.8,7.72,16.92,7,24-1.19,11.23-6.77,21.17-10.37,26.82v48.41l.82.18c28,6.19,51.8-20.8,42.22-47.77L225.66,50.61a40.59,40.59,0,0,0-26.09-28.53,36,36,0,0,0-7-1.61,37.23,37.23,0,0,0-4.81-.32C172,20.15,158,30.52,152.17,45c-.53,1.3-1.07,2.57-1.61,3.83l-17.48,52.67C128.77,112.77,127,132,144.62,139.09Z"/><path d="M248.72,171.12s-2.6-11.58-.2-17l1.28-2.88-29.91,12.95Z"/><path class="cls-4" d="M257.59,260a.21.21,0,0,1,0-.07H118s0,0,0,.07H77.8l0-.11,16.32-54.23,3.36-11.16c3.19-13.46,16.42-23.46,30.28-25.83l32.37-7.76a9.88,9.88,0,0,0,7.57-9.6v-9h40.13v9a9.87,9.87,0,0,0,7.56,9.6l32.38,7.76c13.85,2.37,27.08,12.37,30.28,25.83L297.83,260Z"/><polygon class="cls-1" points="256.83 259.94 225.58 259.94 125.74 159.68 156.97 159.68 256.83 259.94"/><path d="M203.09,71.2a13,13,0,0,0-10,4.75l-.73.89a6.9,6.9,0,0,0-1.56,4.37h0a1.51,1.51,0,0,1-1.51,1.51H185a1.51,1.51,0,0,1-1.51-1.51h0a6.9,6.9,0,0,0-1.55-4.36l-.72-.88a13,13,0,0,0-10-4.76H155.28a.09.09,0,0,0-.09.09v14a14.13,14.13,0,0,0,14.13,14.13h0A14.12,14.12,0,0,0,183,88.82a4.94,4.94,0,0,1,1.63-2.62h0a3.92,3.92,0,0,1,5,0h0a5,5,0,0,1,1.63,2.63,14.12,14.12,0,0,0,13.25,10.63c8,.24,14.56-6.53,14.56-14.57V71.29a.09.09,0,0,0-.09-.09Z"/><path class="cls-3" d="M192,111.39a3.51,3.51,0,0,0-4.14.35,3.51,3.51,0,0,0-4.14-.35l-6.3,3.87,1.17,1a14.2,14.2,0,0,0,9.28,3.45h0a14.2,14.2,0,0,0,9.28-3.45l1.17-1Z"/><polygon class="cls-5" points="518.03 177.97 460.16 177.97 460.17 149.46 460.16 101.15 518.03 101.15 518.03 177.97"/><path d="M343.24,260l13.85-49c5.34-19.13,19.93-33.73,38.19-38.24L438.68,162c12.62-3.11,21.56-2.18,21.52-16v-1.66h7.68a8.31,8.31,0,0,1,2.87.51,8.78,8.78,0,0,1,3,1.8l14.76,13.56,16.14-13.77a8.89,8.89,0,0,1,2.71-1.58,8.47,8.47,0,0,1,2.87-.51h7.86V146c0,13.8,8.9,12.87,21.52,16L583,172.74c18.27,4.5,32.85,19.11,38.19,38.24l13.77,49Z"/><path class="cls-5" d="M524.74,74.86l-1.43,29.54c4.93-1.09,9.62-6.84,11-11.69l3-10.48a8.85,8.85,0,0,0-2.78-8.6h0a6.85,6.85,0,0,0-9.72,1.24Z"/><path class="cls-5" d="M453.38,74.86l1.43,29.54c-4.93-1.09-9.62-6.84-11-11.69l-3-10.48a8.85,8.85,0,0,1,2.78-8.6h0a6.85,6.85,0,0,1,9.72,1.24Z"/><path class="cls-5" d="M531.76,72.62l-1.29,6.71c-.23,1.22-.59,2.7-1,4.36-3.95,14.62-15.07,43.81-15.07,43.81a27.43,27.43,0,0,1-50.6,0s-11.13-29.19-15.07-43.81c-.44-1.66-.81-3.14-1-4.36l-1.3-6.71c-5.12-26.47,14.46-51.67,41.4-52.46l1.3,0,1.3,0C517.3,20.95,536.88,46.15,531.76,72.62Z"/><path class="cls-6" d="M532.56,62.85c-.67-22.56-18.16-42-41.13-42.63h-4.75c-23,.68-40.45,20.07-41.13,42.63a45.18,45.18,0,0,0,1.64,13l3,11.27h5.14l-1.41-3.21a31.38,31.38,0,0,1-.5-23.93,35.47,35.47,0,0,0,2.11-9l.34-3a11.81,11.81,0,0,1,18.54-6.45,24.27,24.27,0,0,0,29.27,0,11.66,11.66,0,0,1,7.08-2.39,11.81,11.81,0,0,1,11.47,8.84l.33,3a35.8,35.8,0,0,0,2.12,9,31.41,31.41,0,0,1-.5,23.93l-1.41,3.21h5.14l3-11.27A45.43,45.43,0,0,0,532.56,62.85Z"/><path class="cls-6" d="M527.91,87.14l-9.33,34.92a30.68,30.68,0,0,1-59,0l-9.33-34.92h5.13L462.26,103c2.31,6.45,10.82,6,15.15,3.65l4-2.17a16,16,0,0,1,15.24,0l4,2.17c4.33,2.34,12.84,2.81,15.15-3.65l6.92-15.83Z"/><path class="cls-4" d="M518.93,65.5,514.87,65h0l-.34-.07-2.76-.45a29.12,29.12,0,0,0-7.5-.25,11.77,11.77,0,0,0-9.46,6.65,2.52,2.52,0,0,1-2.91,1.34,10.7,10.7,0,0,0-5.7,0,2.52,2.52,0,0,1-2.91-1.34,11.77,11.77,0,0,0-9.46-6.65,29.12,29.12,0,0,0-7.5.25l-2.76.45-.34.07h0l-4.07.54a5.54,5.54,0,0,0-4.85,6.11,4,4,0,0,0,.34,1.18h0a49,49,0,0,1,2.23,5.42A17.8,17.8,0,0,0,458.13,81,16.16,16.16,0,0,0,462,85.74a14.39,14.39,0,0,0,11.63,3.44A12.87,12.87,0,0,0,484.33,79a14,14,0,0,0,.2-1.75,2.58,2.58,0,0,1,1.94-2.38,10.82,10.82,0,0,1,5.16,0,2.58,2.58,0,0,1,1.94,2.38,14,14,0,0,0,.2,1.75,12.87,12.87,0,0,0,10.72,10.2,14.39,14.39,0,0,0,11.63-3.44A16.16,16.16,0,0,0,520,81a17.8,17.8,0,0,0,1.24-2.82,49,49,0,0,1,2.23-5.42h0a4,4,0,0,0,.34-1.18A5.54,5.54,0,0,0,518.93,65.5ZM482.34,78.58h0a10.68,10.68,0,0,1-8.89,8.46,12,12,0,0,1-9.65-2.86,13.41,13.41,0,0,1-3.2-3.9A15.24,15.24,0,0,1,459,75.5a7.47,7.47,0,0,1-.09-1.55h0a7.48,7.48,0,0,1,6.25-7l2.29-.37a24.18,24.18,0,0,1,6.24-.21,9.7,9.7,0,0,1,6.9,3.93,7.58,7.58,0,0,1,1.25,2.88c.17.79.38,1.95.52,2.82A7.51,7.51,0,0,1,482.34,78.58Zm36.9-4.63a7.47,7.47,0,0,1-.09,1.55,15.24,15.24,0,0,1-1.64,4.8,13.41,13.41,0,0,1-3.2,3.9,12,12,0,0,1-9.65,2.86,10.68,10.68,0,0,1-8.89-8.46h0a7.51,7.51,0,0,1,0-2.62c.15-.87.35-2,.52-2.82a7.58,7.58,0,0,1,1.25-2.88,9.7,9.7,0,0,1,6.9-3.93,24.18,24.18,0,0,1,6.24.21l2.29.37a7.48,7.48,0,0,1,6.25,7Z"/><polygon class="cls-1" points="576.86 162.34 484.87 254.89 484.36 255.4 484.51 255.43 453.25 255.43 453.11 255.4 453.54 254.96 453.61 254.89 545.61 162.34 576.86 162.34"/><path class="cls-4" d="M593.78,257.6c-.49-1.38-1-2.74-1.55-4.1a111.17,111.17,0,0,0-207.9,4.1c-.19.54-.37,1.07-.55,1.61H404.2c.23-.54.47-1.07.71-1.61a92,92,0,0,1,165.41-6c1,2,2,4,2.91,6,.24.54.48,1.07.7,1.61h20.4Z"/><path class="cls-5" d="M422.21,249c-4.95,1.76-10.2,2.71-15.06,4.87-.15.07-3.21,3.72-5.17,4.54a22.58,22.58,0,0,1-2.21.71H370.38l.05-.94a6.22,6.22,0,0,0,0-1.17l-.4-3.76a6.25,6.25,0,0,1,0-1.52,6.36,6.36,0,0,1,2.78-4.6l.05,0h0l1.47-1a13.92,13.92,0,0,0,4.52-5.25l1.44-2.93h0a6.38,6.38,0,0,1,3.82-3.65h0l.12,0,.46-.13,2-.56a11.24,11.24,0,0,0,5-3.06l1.18-1.25a6.39,6.39,0,0,1,5.37-2,6.24,6.24,0,0,1,1.54.37h0a6.32,6.32,0,0,1,1.39.73l6.67,3.47a14.39,14.39,0,0,1,4.77,4.11Z"/><path class="cls-5" d="M613.41,258.73l-.09.35H570.39l-.52-.17c-2-.7-6.23-4.71-8.25-5.35l9.22-12.22a14.39,14.39,0,0,1,4.77-4.11l6.67-3.47a6.37,6.37,0,0,1,1.4-.73h0a6.32,6.32,0,0,1,6.91,1.65l1.18,1.25a11.24,11.24,0,0,0,5,3.06l2,.56.46.13.12,0h0a6.39,6.39,0,0,1,3.81,3.65h0l1.44,2.93a13.8,13.8,0,0,0,4.52,5.25l1.46,1h0l.05,0a6.35,6.35,0,0,1,2.77,4.6A6.25,6.25,0,0,1,613.41,258.73Z"/><path class="cls-4" d="M633.68,260l-289.25-.06,17.94-.54q4.63-.14,9.25-.52A177.6,177.6,0,0,0,390,256.42q3.76-.7,7.5-1.57a183,183,0,0,0,22.17-6.63l.12,0q3.68-1.36,7.31-2.88,2.18-.91,4.34-1.87l.33-.15q6.49-2.9,13.14-5.14l.67-.22,1-.34,2.1-.67q3.23-1,6.49-1.85a147.54,147.54,0,0,1,71.73-.81,150.64,150.64,0,0,1,14.92,4.38q3.13,1.09,6.23,2.33l2.2.9,7.75,3.23q5,2.09,10.14,3.89,3.7,1.29,7.44,2.43,6.66,2,13.43,3.53,3,.68,6.11,1.25,7,1.31,14.08,2.05c2.34.25,4.68.45,7,.6l.66,0Z"/><path class="cls-5" d="M494.22,111.42a7.38,7.38,0,0,0-2.66-.35c-1.67.08-3.34.08-5,0a7.38,7.38,0,0,0-2.66.35L476,114.09l1.45.69a27.43,27.43,0,0,0,11.56,2.37h0a27.43,27.43,0,0,0,11.56-2.37l1.45-.69Z"/></svg>